{
  "accessors": [
    {
      "bufferView": 2,
      "componentType": 5126,
      "count": 4601,
      "max": [
        1.8467559814453125,
        13.481771469116211,
        5.1757674217224121
      ],
      "min": [
        -2.3036384582519531,
        8.0129146575927734,
        1.0379164218902588
      ],
      "type": "VEC3"
    },
    {
      "bufferView": 2,
      "byteOffset": 55212,
      "componentType": 5126,
      "count": 4601,
      "max": [
        0.99999761581420898,
        0.99999582767486572,
        0.99860399961471558
      ],
      "min": [
        -0.99999946355819702,
        -0.99999576807022095,
        -0.99881529808044434
      ],
      "type": "VEC3"
    },
    {
      "bufferView": 3,
      "componentType": 5126,
      "count": 4601,
      "max": [
        0.99984568357467651,
        0.99988096952438354,
        0.99999988079071045,
        1
      ],
      "min": [
        -0.99998855590820312,
        -0.99535119533538818,
        -0.99999994039535522,
        1
      ],
      "type": "VEC4"
    },
    {
      "bufferView": 1,
      "componentType": 5126,
      "count": 4601,
      "max": [
        0.9933624267578125,
        0.99381864070892334
      ],
      "min": [
        0,
        0
      ],
      "type": "VEC2"
    },
    {
      "bufferView": 0,
      "componentType": 5125,
      "count": 22830,
      "max": [
        4600
      ],
      "min": [
        0
      ],
      "type": "SCALAR"
    }
  ],
  "asset": {
    "extras": {
      "author": "French Baguette (https://sketchfab.com/FrenchBaguette)",
      "license": "CC-BY-4.0 (http://creativecommons.org/licenses/by/4.0/)",
      "source": "https://sketchfab.com/models/8cc9503705354c5dbbd009db50712041",
      "title": "Painterly Hell Flower (School Project)"
    },
    "generator": "Sketchfab-4.17.0",
    "version": "2.0"
  },
  "bufferViews": [
    {
      "buffer": 0,
      "byteLength": 91320,
      "byteOffset": 0,
      "name": "floatBufferViews",
      "target": 34963
    },
    {
      "buffer": 0,
      "byteLength": 36808,
      "byteOffset": 91320,
      "byteStride": 8,
      "name": "floatBufferViews",
      "target": 34962
    },
    {
      "buffer": 0,
      "byteLength": 110424,
      "byteOffset": 128128,
      "byteStride": 12,
      "name": "floatBufferViews",
      "target": 34962
    },
    {
      "buffer": 0,
      "byteLength": 73616,
      "byteOffset": 238552,
      "byteStride": 16,
      "name": "floatBufferViews",
      "target": 34962
    }
  ],
  "buffers": [
    {
      "byteLength": 312168,
      "uri": "scene.bin"
    }
  ],
  "extensionsUsed": [
    "KHR_materials_unlit"
  ],
  "images": [
    {
      "uri": "textures/A_Flower_baseColor.png"
    }
  ],
  "materials": [
    {
      "doubleSided": true,
      "emissiveFactor": [
        0,
        0,
        0
      ],
      "extensions": {
        "KHR_materials_unlit": {}
      },
      "name": "A_Flower",
      "pbrMetallicRoughness": {
        "baseColorFactor": [
          1,
          1,
          1,
          1
        ],
        "baseColorTexture": {
          "index": 0,
          "texCoord": 0
        },
        "metallicFactor": 0,
        "roughnessFactor": 1
      }
    }
  ],
  "meshes": [
    {
      "name": "PlantFlower8_A_Flower_0",
      "primitives": [
        {
          "attributes": {
            "NORMAL": 1,
            "POSITION": 0,
            "TANGENT": 2,
            "TEXCOORD_0": 3
          },
          "indices": 4,
          "material": 0,
          "mode": 4
        }
      ]
    }
  ],
  "nodes": [
    {
      "children": [
        1
      ],
      "name": "RootNode (gltf orientation matrix)",
      "rotation": [
        -0.70710678118654746,
        -0,
        -0,
        0.70710678118654757
      ]
    },
    {
      "children": [
        2
      ],
      "name": "RootNode (model correction matrix)"
    },
    {
      "children": [
        3
      ],
      "matrix": [
        1,
        0,
        0,
        0,
        0,
        0,
        1,
        0,
        0,
        -1,
        0,
        0,
        0,
        0,
        0,
        1
      ],
      "name": "140a64bbb7bb46db9800d04a750c153c.fbx"
    },
    {
      "children": [
        4
      ],
      "name": "RootNode"
    },
    {
      "children": [
        5
      ],
      "matrix": [
        1.7914339303970337,
        0,
        0,
        0,
        0,
        1.7914339303970337,
        0,
        0,
        0,
        0,
        1.7914339303970337,
        0,
        -13.276590347290039,
        -7.1637568473815918,
        -7.644920825958252,
        1
      ],
      "name": "PlantFlower8"
    },
    {
      "mesh": 0,
      "name": "PlantFlower8_A_Flower_0"
    }
  ],
  "samplers": [
    {
      "magFilter": 9729,
      "minFilter": 9987,
      "wrapS": 10497,
      "wrapT": 10497
    }
  ],
  "scene": 0,
  "scenes": [
    {
      "name": "OSG_Scene",
      "nodes": [
        0
      ]
    }
  ],
  "textures": [
    {
      "sampler": 0,
      "source": 0
    }
  ]
}

